<svg width="30" height="30" viewBox="0 0 30 30" fill="none" xmlns="http://www.w3.org/2000/svg">
<path d="M14.6625 23.8875C14.775 23.925 14.8875 23.9438 15 23.9438C15.1125 23.9438 15.225 23.9344 15.3281 23.8875C15.4219 23.8594 24.2719 20.7281 24.2719 11.1375C24.2719 6.0375 20.1094 1.875 15 1.875C9.89062 1.875 5.72812 6.0375 5.72812 11.1375C5.72812 20.7281 14.5781 23.8594 14.6625 23.8875ZM15 6.10313C17.7562 6.10313 19.9969 8.34375 19.9969 11.1C19.9969 13.8469 17.7562 16.0969 15 16.0969C12.2437 16.0969 10.0031 13.8469 10.0031 11.1C10.0031 8.34375 12.2437 6.10313 15 6.10313Z" fill="black"/>
<path d="M20.4562 22.3312C19.9781 22.0218 19.3312 22.1625 19.0219 22.6406C18.7125 23.1187 18.8531 23.7656 19.3312 24.075C19.7156 24.3187 19.8375 24.525 19.8375 24.5906C19.8375 24.9656 18.1687 26.0531 14.9906 26.0531C11.8125 26.0531 10.1531 24.9656 10.1531 24.5906C10.1531 24.525 10.275 24.3187 10.6594 24.075C11.1375 23.7656 11.2781 23.1281 10.9687 22.6406C10.6594 22.1625 10.0219 22.0218 9.53437 22.3312C8.32499 23.1093 8.07187 23.9906 8.07187 24.5906C8.08124 26.9062 11.5594 28.125 15 28.125C18.4406 28.125 21.9187 26.9062 21.9187 24.5906C21.9187 23.9906 21.6656 23.1 20.4562 22.3312Z" fill="black"/>
</svg>
