<svg width="30" height="30" viewBox="0 0 30 30" fill="none" xmlns="http://www.w3.org/2000/svg">
<mask id="path-1-inside-1_9_109" fill="white">
<path d="M15.4678 8.58933C12.9038 8.58933 10.3406 8.29402 7.8525 7.71089C7.60032 7.65183 7.44375 7.40058 7.50282 7.14745C7.56188 6.8962 7.8075 6.73964 8.06719 6.79777C13.4981 8.07089 19.2703 7.91058 24.6403 6.33089C24.8934 6.25964 25.1503 6.39933 25.2225 6.64777C25.2956 6.89714 25.1541 7.15683 24.9056 7.22995C21.8391 8.13183 18.6638 8.58933 15.4678 8.58933Z"/>
</mask>
<path d="M15.4678 8.58933C12.9038 8.58933 10.3406 8.29402 7.8525 7.71089C7.60032 7.65183 7.44375 7.40058 7.50282 7.14745C7.56188 6.8962 7.8075 6.73964 8.06719 6.79777C13.4981 8.07089 19.2703 7.91058 24.6403 6.33089C24.8934 6.25964 25.1503 6.39933 25.2225 6.64777C25.2956 6.89714 25.1541 7.15683 24.9056 7.22995C21.8391 8.13183 18.6638 8.58933 15.4678 8.58933Z" fill="#010002"/>
<path d="M7.8525 7.71089L8.08069 6.73727L8.08054 6.73724L7.8525 7.71089ZM7.50282 7.14745L6.52935 6.91862L6.52898 6.92023L7.50282 7.14745ZM8.06719 6.79777L8.29544 5.82411L8.28561 5.82191L8.06719 6.79777ZM24.6403 6.33089L24.3693 5.36823L24.3581 5.37154L24.6403 6.33089ZM25.2225 6.64777L24.2622 6.92679L24.2629 6.92915L25.2225 6.64777ZM24.9056 7.22995L25.1878 8.18932L25.188 8.18926L24.9056 7.22995ZM15.4678 7.58933C12.9802 7.58933 10.4936 7.30278 8.08069 6.73727L7.62432 8.68451C10.1876 9.28526 12.8273 9.58933 15.4678 9.58933V7.58933ZM8.08054 6.73724C8.3653 6.80393 8.54313 7.08982 8.47666 7.37468L6.52898 6.92023C6.34438 7.71134 6.83533 8.49973 7.62447 8.68455L8.08054 6.73724ZM8.47628 7.37629C8.40938 7.66091 8.12166 7.8347 7.84877 7.77362L8.28561 5.82191C7.49335 5.64458 6.71438 6.1315 6.52935 6.91862L8.47628 7.37629ZM7.83896 7.77137C13.4386 9.08405 19.3867 8.91872 24.9225 7.29024L24.3581 5.37154C19.154 6.90244 13.5577 7.05774 8.29543 5.82416L7.83896 7.77137ZM24.9113 7.29348C24.6513 7.36665 24.3477 7.2208 24.2622 6.92679L26.1828 6.36874C25.953 5.57786 25.1356 5.15263 24.3694 5.3683L24.9113 7.29348ZM24.2629 6.92915C24.1813 6.65076 24.3405 6.35389 24.6233 6.27065L25.188 8.18926C25.9677 7.95977 26.41 7.14352 26.1821 6.36638L24.2629 6.92915ZM24.6235 6.27058C21.6485 7.14553 18.5682 7.58933 15.4678 7.58933V9.58933C18.7593 9.58933 22.0296 9.11813 25.1878 8.18932L24.6235 6.27058Z" fill="black" mask="url(#path-1-inside-1_9_109)"/>
<mask id="path-3-inside-2_9_109" fill="white">
<path d="M24.7725 24.7144C24.7284 24.7144 24.6844 24.7078 24.6394 24.6947C18.6778 22.9406 12.2578 22.9406 6.29626 24.6947C6.04407 24.765 5.78626 24.6263 5.71407 24.3778C5.64095 24.1284 5.78251 23.8687 6.03095 23.7956C12.1669 21.99 18.7697 21.99 24.9056 23.7956C25.1541 23.8687 25.2956 24.1284 25.2225 24.3778C25.1625 24.5831 24.975 24.7144 24.7725 24.7144Z"/>
</mask>
<path d="M24.7725 24.7144C24.7284 24.7144 24.6844 24.7078 24.6394 24.6947C18.6778 22.9406 12.2578 22.9406 6.29626 24.6947C6.04407 24.765 5.78626 24.6263 5.71407 24.3778C5.64095 24.1284 5.78251 23.8687 6.03095 23.7956C12.1669 21.99 18.7697 21.99 24.9056 23.7956C25.1541 23.8687 25.2956 24.1284 25.2225 24.3778C25.1625 24.5831 24.975 24.7144 24.7725 24.7144Z" fill="#010002"/>
<path d="M24.6394 24.6947L24.3571 25.654L24.3594 25.6547L24.6394 24.6947ZM6.29626 24.6947L6.56483 25.6579L6.57169 25.656L6.57853 25.654L6.29626 24.6947ZM5.71407 24.3778L6.67436 24.0988L6.67367 24.0964L5.71407 24.3778ZM6.03095 23.7956L5.74865 22.8363L5.74859 22.8363L6.03095 23.7956ZM24.9056 23.7956L25.188 22.8363L25.1879 22.8363L24.9056 23.7956ZM25.2225 24.3778L24.2629 24.0964L24.2627 24.0973L25.2225 24.3778ZM24.7725 23.7144C24.8301 23.7144 24.8802 23.7233 24.9194 23.7347L24.3594 25.6547C24.4885 25.6924 24.6268 25.7144 24.7725 25.7144V23.7144ZM24.9216 23.7354C18.7758 21.9271 12.1598 21.9271 6.014 23.7354L6.57853 25.654C12.3558 23.9542 18.5798 23.9542 24.3571 25.654L24.9216 23.7354ZM6.0277 23.7314C6.28333 23.6602 6.58787 23.8011 6.67436 24.0988L4.75379 24.6568C4.98465 25.4514 5.80482 25.8698 6.56483 25.6579L6.0277 23.7314ZM6.67367 24.0964C6.7553 24.3748 6.59612 24.6717 6.31331 24.7549L5.74859 22.8363C4.9689 23.0658 4.5266 23.8821 4.75448 24.6592L6.67367 24.0964ZM6.31325 24.755C12.2649 23.0036 18.6717 23.0036 24.6233 24.755L25.1879 22.8363C18.8677 20.9764 12.0689 20.9764 5.74865 22.8363L6.31325 24.755ZM24.6233 24.7549C24.3405 24.6717 24.1813 24.3748 24.2629 24.0964L26.1821 24.6592C26.41 23.8821 25.9677 23.0658 25.188 22.8363L24.6233 24.7549ZM24.2627 24.0973C24.332 23.86 24.5478 23.7144 24.7725 23.7144V25.7144C25.4022 25.7144 25.993 25.3062 26.1824 24.6583L24.2627 24.0973Z" fill="black" mask="url(#path-3-inside-2_9_109)"/>
<path d="M12.6543 4.61451L12.6544 4.61461L12.6543 4.61451Z" fill="#010002" stroke="black"/>
<mask id="path-6-inside-3_9_109" fill="white">
<path d="M16.0809 28.724C15.9319 28.724 15.7847 28.6528 15.6938 28.5196C15.5484 28.305 15.6028 28.0134 15.8166 27.8681C19.9369 25.0575 22.3959 20.4365 22.3959 15.509C22.3959 10.5815 19.9369 5.96059 15.8166 3.14996C15.6028 3.00465 15.5484 2.71215 15.6938 2.4984C15.84 2.28465 16.1325 2.23215 16.3453 2.37559C20.7206 5.36152 23.3325 10.2712 23.3325 15.509C23.3325 20.7468 20.7206 25.6565 16.3453 28.6425C16.2647 28.6968 16.1728 28.724 16.0809 28.724Z"/>
</mask>
<path d="M16.0809 28.724C15.9319 28.724 15.7847 28.6528 15.6938 28.5196C15.5484 28.305 15.6028 28.0134 15.8166 27.8681C19.9369 25.0575 22.3959 20.4365 22.3959 15.509C22.3959 10.5815 19.9369 5.96059 15.8166 3.14996C15.6028 3.00465 15.5484 2.71215 15.6938 2.4984C15.84 2.28465 16.1325 2.23215 16.3453 2.37559C20.7206 5.36152 23.3325 10.2712 23.3325 15.509C23.3325 20.7468 20.7206 25.6565 16.3453 28.6425C16.2647 28.6968 16.1728 28.724 16.0809 28.724Z" fill="#010002"/>
<path d="M15.6938 28.5196L14.8656 29.0802L14.868 29.0837L15.6938 28.5196ZM15.8166 27.8681L16.3788 28.6951L16.3801 28.6942L15.8166 27.8681ZM15.8166 3.14996L16.3801 2.32386L16.3788 2.32297L15.8166 3.14996ZM15.6938 2.4984L14.8685 1.93371L14.8668 1.93619L15.6938 2.4984ZM16.3453 2.37559L16.909 1.54959L16.9042 1.54636L16.3453 2.37559ZM16.3453 28.6425L16.9045 29.4715L16.909 29.4684L16.3453 28.6425ZM16.0809 27.724C16.2477 27.724 16.416 27.8041 16.5195 27.9556L14.868 29.0837C15.1534 29.5014 15.6161 29.724 16.0809 29.724V27.724ZM16.5219 27.9591C16.6819 28.1954 16.6268 28.5265 16.3788 28.6951L15.2544 27.0411C14.5789 27.5003 14.415 28.4145 14.8656 29.0802L16.5219 27.9591ZM16.3801 28.6942C20.7697 25.6999 23.3959 20.7717 23.3959 15.509H21.3959C21.3959 20.1013 19.1041 24.415 15.2531 27.042L16.3801 28.6942ZM23.3959 15.509C23.3959 10.2463 20.7697 5.31816 16.3801 2.32386L15.2531 3.97607C19.1041 6.60302 21.3959 10.9167 21.3959 15.509H23.3959ZM16.3788 2.32297C16.6262 2.49113 16.683 2.82202 16.5208 3.06061L14.8668 1.93619C14.4139 2.60228 14.5795 3.51817 15.2544 3.97696L16.3788 2.32297ZM16.5191 3.06308C16.3495 3.31098 16.0211 3.36303 15.7864 3.20482L16.9042 1.54636C16.2439 1.10127 15.3306 1.25832 14.8685 1.93372L16.5191 3.06308ZM15.7816 3.20157C19.8876 6.00372 22.3325 10.6062 22.3325 15.509H24.3325C24.3325 9.93626 21.5536 4.71933 16.909 1.5496L15.7816 3.20157ZM22.3325 15.509C22.3325 20.4119 19.8876 25.0143 15.7816 27.8165L16.909 29.4684C21.5536 26.2987 24.3325 21.0818 24.3325 15.509H22.3325ZM15.7862 27.8134C15.8712 27.756 15.9741 27.724 16.0809 27.724V29.724C16.3715 29.724 16.6582 29.6376 16.9045 29.4715L15.7862 27.8134Z" fill="black" mask="url(#path-6-inside-3_9_109)"/>
<mask id="path-8-inside-4_9_109" fill="white">
<path d="M15.4678 28.5843C15.2091 28.5843 14.9991 28.3743 14.9991 28.1156V2.90247C14.9991 2.64372 15.2091 2.43372 15.4678 2.43372C15.7266 2.43372 15.9366 2.64372 15.9366 2.90247V28.1156C15.9366 28.3753 15.7266 28.5843 15.4678 28.5843Z"/>
</mask>
<path d="M15.4678 28.5843C15.2091 28.5843 14.9991 28.3743 14.9991 28.1156V2.90247C14.9991 2.64372 15.2091 2.43372 15.4678 2.43372C15.7266 2.43372 15.9366 2.64372 15.9366 2.90247V28.1156C15.9366 28.3753 15.7266 28.5843 15.4678 28.5843Z" fill="#010002"/>
<path d="M15.4678 27.5843C15.7614 27.5843 15.9991 27.8221 15.9991 28.1156H13.9991C13.9991 28.9266 14.6568 29.5843 15.4678 29.5843V27.5843ZM15.9991 28.1156V2.90247H13.9991V28.1156H15.9991ZM15.9991 2.90247C15.9991 3.196 15.7614 3.43372 15.4678 3.43372V1.43372C14.6568 1.43372 13.9991 2.09143 13.9991 2.90247H15.9991ZM15.4678 3.43372C15.1743 3.43372 14.9366 3.196 14.9366 2.90247H16.9366C16.9366 2.09143 16.2789 1.43372 15.4678 1.43372V3.43372ZM14.9366 2.90247V28.1156H16.9366V2.90247H14.9366ZM14.9366 28.1156C14.9366 27.8217 15.1756 27.5843 15.4678 27.5843V29.5843C16.2776 29.5843 16.9366 28.9289 16.9366 28.1156H14.9366Z" fill="black" mask="url(#path-8-inside-4_9_109)"/>
<mask id="path-10-inside-5_9_109" fill="white">
<path d="M28.5431 15.9778H4.2675C4.00875 15.9778 3.79875 15.7678 3.79875 15.509C3.79875 15.2503 4.00875 15.0403 4.2675 15.0403H28.5441C28.8028 15.0403 29.0128 15.2503 29.0128 15.509C29.0128 15.7678 28.8028 15.9778 28.5431 15.9778Z"/>
</mask>
<path d="M28.5431 15.9778H4.2675C4.00875 15.9778 3.79875 15.7678 3.79875 15.509C3.79875 15.2503 4.00875 15.0403 4.2675 15.0403H28.5441C28.8028 15.0403 29.0128 15.2503 29.0128 15.509C29.0128 15.7678 28.8028 15.9778 28.5431 15.9778Z" fill="#010002"/>
<path d="M28.5431 14.9778H4.2675V16.9778H28.5431V14.9778ZM4.2675 14.9778C4.56104 14.9778 4.79875 15.2155 4.79875 15.509H2.79875C2.79875 16.3201 3.45647 16.9778 4.2675 16.9778V14.9778ZM4.79875 15.509C4.79875 15.8026 4.56104 16.0403 4.2675 16.0403V14.0403C3.45647 14.0403 2.79875 14.698 2.79875 15.509H4.79875ZM4.2675 16.0403H28.5441V14.0403H4.2675V16.0403ZM28.5441 16.0403C28.2505 16.0403 28.0128 15.8026 28.0128 15.509H30.0128C30.0128 14.698 29.3551 14.0403 28.5441 14.0403V16.0403ZM28.0128 15.509C28.0128 15.2142 28.2518 14.9778 28.5431 14.9778V16.9778C29.3538 16.9778 30.0128 16.3214 30.0128 15.509H28.0128Z" fill="black" mask="url(#path-10-inside-5_9_109)"/>
<mask id="path-12-inside-6_9_109" fill="white">
<path d="M15.4678 29.1028C7.97251 29.1028 1.87407 23.0043 1.87407 15.509C1.87407 12.2081 3.07219 9.02247 5.24907 6.54185C5.41969 6.34685 5.71501 6.3281 5.91094 6.49872C6.10501 6.66935 6.12376 6.9656 5.95407 7.1606C3.92813 9.46966 2.81157 12.435 2.81157 15.509C2.81157 22.4878 8.48907 28.1653 15.4678 28.1653C22.4466 28.1653 28.1241 22.4878 28.1241 15.509C28.1241 8.53028 22.4466 2.85278 15.4678 2.85278C12.5822 2.85278 9.86532 3.79778 7.61251 5.5856C7.41001 5.74685 7.11563 5.71403 6.95438 5.50966C6.79313 5.30716 6.82688 5.01278 7.03032 4.85153C9.45001 2.9306 12.3675 1.91528 15.4678 1.91528C22.9631 1.91528 29.0616 8.01372 29.0616 15.509C29.0616 23.0043 22.9631 29.1028 15.4678 29.1028Z"/>
</mask>
<path d="M15.4678 29.1028C7.97251 29.1028 1.87407 23.0043 1.87407 15.509C1.87407 12.2081 3.07219 9.02247 5.24907 6.54185C5.41969 6.34685 5.71501 6.3281 5.91094 6.49872C6.10501 6.66935 6.12376 6.9656 5.95407 7.1606C3.92813 9.46966 2.81157 12.435 2.81157 15.509C2.81157 22.4878 8.48907 28.1653 15.4678 28.1653C22.4466 28.1653 28.1241 22.4878 28.1241 15.509C28.1241 8.53028 22.4466 2.85278 15.4678 2.85278C12.5822 2.85278 9.86532 3.79778 7.61251 5.5856C7.41001 5.74685 7.11563 5.71403 6.95438 5.50966C6.79313 5.30716 6.82688 5.01278 7.03032 4.85153C9.45001 2.9306 12.3675 1.91528 15.4678 1.91528C22.9631 1.91528 29.0616 8.01372 29.0616 15.509C29.0616 23.0043 22.9631 29.1028 15.4678 29.1028Z" fill="#010002"/>
<path d="M5.24907 6.54185L6.0007 7.20144L6.00165 7.20035L5.24907 6.54185ZM5.91094 6.49872L6.57125 5.74771L6.56766 5.74458L5.91094 6.49872ZM5.95407 7.1606L6.70576 7.82012L6.70844 7.81704L5.95407 7.1606ZM7.61251 5.5856L6.99088 4.80228L6.98958 4.80332L7.61251 5.5856ZM6.95438 5.50966L7.73946 4.89024L7.73666 4.88673L6.95438 5.50966ZM7.03032 4.85153L7.65148 5.63521L7.65209 5.63474L7.03032 4.85153ZM15.4678 28.1028C8.52479 28.1028 2.87407 22.4521 2.87407 15.509H0.874069C0.874069 23.5566 7.42022 30.1028 15.4678 30.1028V28.1028ZM2.87407 15.509C2.87407 12.4505 3.98413 9.49939 6.00069 7.20144L4.49744 5.88226C2.16026 8.54556 0.874069 11.9657 0.874069 15.509H2.87407ZM6.00165 7.20035C5.80523 7.42482 5.46954 7.44035 5.25423 7.25286L6.56766 5.74458C5.96048 5.21584 5.03415 5.26887 4.49649 5.88334L6.00165 7.20035ZM5.25064 7.24972C5.02827 7.0542 5.01093 6.72107 5.1997 6.50415L6.70844 7.81704C7.23658 7.21012 7.18175 6.28449 6.57124 5.74772L5.25064 7.24972ZM5.20238 6.50108C3.01634 8.99262 1.81157 12.1924 1.81157 15.509H3.81157C3.81157 12.6776 4.83992 9.9467 6.70576 7.82012L5.20238 6.50108ZM1.81157 15.509C1.81157 23.0401 7.93679 29.1653 15.4678 29.1653V27.1653C9.04136 27.1653 3.81157 21.9355 3.81157 15.509H1.81157ZM15.4678 29.1653C22.9989 29.1653 29.1241 23.0401 29.1241 15.509H27.1241C27.1241 21.9355 21.8943 27.1653 15.4678 27.1653V29.1653ZM29.1241 15.509C29.1241 7.978 22.9989 1.85278 15.4678 1.85278V3.85278C21.8943 3.85278 27.1241 9.08257 27.1241 15.509H29.1241ZM15.4678 1.85278C12.3574 1.85278 9.4212 2.8736 6.99088 4.80228L8.23414 6.36891C10.3094 4.72197 12.807 3.85278 15.4678 3.85278V1.85278ZM6.98958 4.80332C7.2183 4.62119 7.55579 4.65747 7.73945 4.89025L6.16931 6.12907C6.67547 6.7706 7.60171 6.87251 8.23543 6.36788L6.98958 4.80332ZM7.73666 4.88673C7.92071 5.11786 7.88065 5.45357 7.65148 5.63521L6.40915 4.06785C5.77311 4.572 5.66556 5.49646 6.1721 6.13259L7.73666 4.88673ZM7.65209 5.63474C9.89427 3.85472 12.5924 2.91528 15.4678 2.91528V0.915283C12.1426 0.915283 9.00575 2.00648 6.40855 4.06833L7.65209 5.63474ZM15.4678 2.91528C22.4108 2.91528 28.0616 8.566 28.0616 15.509H30.0616C30.0616 7.46144 23.5154 0.915283 15.4678 0.915283V2.91528ZM28.0616 15.509C28.0616 22.4521 22.4108 28.1028 15.4678 28.1028V30.1028C23.5154 30.1028 30.0616 23.5566 30.0616 15.509H28.0616Z" fill="black" mask="url(#path-12-inside-6_9_109)"/>
</svg>
