<svg width="30" height="30" viewBox="0 0 30 30" fill="none" xmlns="http://www.w3.org/2000/svg">
<g clip-path="url(#clip0_9_67)">
<path d="M29.8627 14.6359L15.3579 0.187021C15.1625 -0.00846663 14.8459 -0.00846663 14.6504 0.187021L0.145146 14.6359C-0.0503418 14.8313 -0.0463713 15.1433 0.145146 15.3414C0.243135 15.4424 0.371123 15.4938 0.498131 15.4949V15.4969H4.0001V29.4607C4.0001 29.5986 4.05608 29.7222 4.14656 29.8122C4.23705 29.9032 4.36205 29.9597 4.50004 29.9597H11.4999C11.7759 29.9597 11.9999 29.7357 11.9999 29.4607V19.4878H17.9999V29.4607C17.9999 29.7352 18.2239 29.9597 18.4999 29.9597H25.4998C25.7758 29.9597 25.9998 29.7357 25.9998 29.4607V15.4969H29.5242C29.6553 15.4994 29.7787 15.4479 29.8627 15.3419C30.0327 15.1244 30.0583 14.8313 29.8627 14.6359Z" fill="black"/>
</g>
<defs>
<clipPath id="clip0_9_67">
<rect width="30" height="30" fill="white"/>
</clipPath>
</defs>
</svg>
