<svg width="30" height="30" viewBox="0 0 30 30" fill="none" xmlns="http://www.w3.org/2000/svg">
<g clip-path="url(#clip0_8_63)">
<path d="M12.1875 3.75C7.52742 3.75 3.75 7.52742 3.75 12.1875C3.75 16.8457 7.52742 20.625 12.1875 20.625C16.8476 20.625 20.625 16.8457 20.625 12.1875C20.625 7.52742 16.8476 3.75 12.1875 3.75ZM12.1875 18.75C8.56922 18.75 5.625 15.8055 5.625 12.1875C5.625 8.56945 8.56945 5.625 12.1875 5.625C15.8058 5.625 18.75 8.56945 18.75 12.1875C18.75 15.8055 15.8058 18.75 12.1875 18.75ZM28.9022 23.5988L23.0327 17.73C23.8852 16.0657 24.375 14.1851 24.375 12.1875C24.375 5.45461 18.9185 0 12.1875 0C5.45742 0 0 5.45461 0 12.1875C0 18.9204 5.45742 24.375 12.1875 24.375C14.1851 24.375 16.0657 23.8842 17.7302 23.0327L23.5988 28.9012C24.3312 29.6339 25.2905 30 26.25 30C27.2095 30 28.1691 29.6337 28.9022 28.9012C30.3663 27.4383 30.3663 25.0636 28.9022 23.5988ZM27.5766 27.5756C27.2222 27.9291 26.7509 28.125 26.25 28.125C25.7491 28.125 25.2778 27.9309 24.9244 27.5756L19.0559 21.7071L18.0909 20.7422L16.8759 21.3628C15.402 22.1173 13.8244 22.5 12.1875 22.5C6.50109 22.5 1.875 17.8748 1.875 12.1875C1.875 6.50016 6.50109 1.875 12.1875 1.875C17.8739 1.875 22.5 6.50016 22.5 12.1875C22.5 13.8263 22.1173 15.4029 21.3638 16.875L20.7413 18.0909L21.7071 19.0559L27.5756 24.9244C27.93 25.2778 28.125 25.7501 28.125 26.25C28.125 26.7518 27.9309 27.2222 27.5766 27.5756Z" fill="black"/>
</g>
<defs>
<clipPath id="clip0_8_63">
<rect width="30" height="30" fill="white"/>
</clipPath>
</defs>
</svg>
