<svg width="30" height="30" viewBox="0 0 30 30" fill="none" xmlns="http://www.w3.org/2000/svg">
<path fill-rule="evenodd" clip-rule="evenodd" d="M5 8.4375H25C25.5175 8.4375 25.9375 8.0175 25.9375 7.5C25.9375 6.9825 25.5175 6.5625 25 6.5625H5C4.4825 6.5625 4.0625 6.9825 4.0625 7.5C4.0625 8.0175 4.4825 8.4375 5 8.4375Z" fill="black"/>
<path fill-rule="evenodd" clip-rule="evenodd" d="M5 15.9375H25C25.5175 15.9375 25.9375 15.5175 25.9375 15C25.9375 14.4825 25.5175 14.0625 25 14.0625H5C4.4825 14.0625 4.0625 14.4825 4.0625 15C4.0625 15.5175 4.4825 15.9375 5 15.9375Z" fill="black"/>
<path fill-rule="evenodd" clip-rule="evenodd" d="M5 23.4375H25C25.5175 23.4375 25.9375 23.0175 25.9375 22.5C25.9375 21.9825 25.5175 21.5625 25 21.5625H5C4.4825 21.5625 4.0625 21.9825 4.0625 22.5C4.0625 23.0175 4.4825 23.4375 5 23.4375Z" fill="black"/>
</svg>
