<svg width="30" height="30" viewBox="0 0 30 30" fill="none" xmlns="http://www.w3.org/2000/svg">
<path d="M15 2.8125C8.26875 2.8125 2.8125 8.26875 2.8125 15C2.8125 21.7313 8.26875 27.1875 15 27.1875C21.7313 27.1875 27.1875 21.7313 27.1875 15C27.1875 8.26875 21.7313 2.8125 15 2.8125ZM16.9116 19.4841C15.9919 20.865 15.0563 21.9291 13.4822 21.9291C12.4078 21.7537 11.9662 20.9841 12.1987 20.1994L14.2237 13.4925C14.2734 13.3284 14.1909 13.1531 14.0409 13.0997C13.8919 13.0472 13.5994 13.2412 13.3463 13.5187L12.1219 14.9916C12.0891 14.7441 12.1181 14.3353 12.1181 14.1703C13.0378 12.7894 14.5491 11.7 15.5737 11.7C16.5478 11.7994 17.0091 12.5784 16.8394 13.4344L14.8003 20.1741C14.7731 20.3259 14.8538 20.4806 14.9916 20.5294C15.1416 20.5819 15.4566 20.3878 15.7106 20.1103L16.9341 18.6384C16.9669 18.8859 16.9116 19.3191 16.9116 19.4841ZM16.6388 10.7241C15.8644 10.7241 15.2362 10.1597 15.2362 9.32906C15.2362 8.49844 15.8644 7.935 16.6388 7.935C17.4131 7.935 18.0412 8.49938 18.0412 9.32906C18.0412 10.1606 17.4131 10.7241 16.6388 10.7241Z" fill="black"/>
</svg>
