<svg width="30" height="30" viewBox="0 0 30 30" fill="none" xmlns="http://www.w3.org/2000/svg">
<path d="M26.25 3.75H3.75C1.67906 3.75 0 5.42906 0 7.5V22.5C0 24.5709 1.67906 26.25 3.75 26.25H26.25C28.3209 26.25 30 24.5709 30 22.5V7.5C30 5.42906 28.3209 3.75 26.25 3.75ZM20.0775 13.7567L28.0151 6.95432C28.0701 7.1301 28.125 7.30588 28.125 7.5V22.5C28.125 22.63 28.0755 22.7454 28.0499 22.868L20.0775 13.7567ZM26.25 5.625C26.3745 5.625 26.4844 5.67264 26.6016 5.69643L15 15.6409L3.39844 5.69643C3.51562 5.67264 3.62549 5.625 3.75 5.625H26.25ZM1.94918 22.8662C1.92352 22.7435 1.875 22.63 1.875 22.5V7.5C1.875 7.30588 1.93084 7.1301 1.9858 6.95432L9.92068 13.7549L1.94918 22.8662ZM3.75 24.375C3.56051 24.375 3.38836 24.32 3.21533 24.267L11.3452 14.9762L14.3903 17.5854C14.5651 17.7374 14.783 17.8125 15 17.8125C15.217 17.8125 15.4349 17.7374 15.6097 17.5854L18.6548 14.9762L26.7847 24.267C26.6126 24.32 26.4404 24.375 26.25 24.375H3.75Z" fill="black"/>
</svg>
