<svg width="30" height="30" viewBox="0 0 30 30" fill="none" xmlns="http://www.w3.org/2000/svg">
<path d="M20.6293 29.6406C20.6293 29.6406 24.5424 29.3478 26.4989 26.087C28.4555 22.826 22.5859 14.6406 22.5859 14.6406C22.5859 14.6406 19.325 18.1943 14.7599 17.9015C10.1947 17.6087 8.23811 14.6406 8.23811 14.6406C8.23811 14.6406 1.0641 21.1624 3.67285 26.3798C6.2816 31.5971 20.6293 29.6406 20.6293 29.6406Z" fill="black"/>
<path d="M15.4482 16.884C20.1106 16.884 23.8902 13.1044 23.8902 8.442C23.8902 3.77961 20.1106 0 15.4482 0C10.7858 0 7.0062 3.77961 7.0062 8.442C7.0062 13.1044 10.7858 16.884 15.4482 16.884Z" fill="black"/>
</svg>
