<svg width="30" height="30" viewBox="0 0 30 30" fill="none" xmlns="http://www.w3.org/2000/svg">
<g clip-path="url(#clip0_8_6)">
<path d="M29.9857 23.6701C30.0492 24.1571 29.9008 24.5806 29.5411 24.9405L25.3171 29.1325C25.1266 29.3442 24.8778 29.5243 24.5708 29.6724C24.2638 29.8207 23.9622 29.9159 23.6659 29.9582C23.6447 29.9582 23.581 29.9637 23.4751 29.9743C23.3694 29.9848 23.2318 29.9902 23.0624 29.9902C22.66 29.9902 22.0089 29.9214 21.1091 29.7837C20.2092 29.646 19.1083 29.3072 17.8063 28.7674C16.504 28.2275 15.0272 27.4176 13.3758 26.3379C11.7244 25.2582 9.96705 23.776 8.10386 21.8916C6.62178 20.4307 5.39377 19.0333 4.41983 17.6995C3.44589 16.3656 2.6625 15.1323 2.06967 13.9995C1.47679 12.8668 1.03216 11.8399 0.735747 10.9189C0.439331 9.99793 0.238192 9.20395 0.132329 8.53702C0.0264657 7.87008 -0.0158794 7.34606 0.00529315 6.96495C0.0264657 6.58385 0.037052 6.37212 0.037052 6.32977C0.0793972 6.03336 0.174674 5.73165 0.322882 5.42465C0.47109 5.11764 0.651057 4.86887 0.862783 4.67831L5.08671 0.454382C5.38313 0.157966 5.72189 0.009758 6.103 0.009758C6.37824 0.009758 6.62173 0.0891552 6.83345 0.24795C7.04518 0.406744 7.22515 0.60259 7.37335 0.835489L10.7716 7.28254C10.9621 7.6213 11.015 7.99182 10.9303 8.3941C10.8457 8.79638 10.6657 9.13514 10.3904 9.41039L8.83426 10.9666C8.79192 11.0089 8.75486 11.0777 8.72311 11.173C8.69135 11.2683 8.67547 11.3477 8.67547 11.4112C8.76016 11.8558 8.95071 12.364 9.24713 12.9356C9.5012 13.4438 9.89289 14.0631 10.4222 14.7935C10.9515 15.524 11.7031 16.3655 12.6771 17.3183C13.6299 18.2923 14.4768 19.0492 15.2178 19.5892C15.9587 20.1289 16.5782 20.526 17.0757 20.7801C17.5733 21.0341 17.9544 21.1876 18.219 21.2404L18.6159 21.3199C18.6582 21.3199 18.7272 21.3039 18.8224 21.2722C18.9177 21.2404 18.9865 21.2034 19.0289 21.161L20.8391 19.319C21.2204 18.9803 21.6648 18.8109 22.173 18.8109C22.533 18.8109 22.8187 18.8744 23.0304 19.0015H23.0621L29.1915 22.622C29.6363 22.8974 29.9009 23.2467 29.9857 23.6701Z" fill="#010002"/>
</g>
<defs>
<clipPath id="clip0_8_6">
<rect width="30" height="30" fill="white"/>
</clipPath>
</defs>
</svg>
