<svg width="22" height="22" viewBox="0 0 22 22" fill="none" xmlns="http://www.w3.org/2000/svg">
<g clip-path="url(#clip0_112_46)">
<path d="M17.0032 22H5.22473C4.11592 22 3.21412 21.0982 3.21412 19.9901L1.54577 12.1572C0.915387 11.8447 0.501373 11.2072 0.501373 10.4953C0.501373 9.45496 1.34757 8.6095 2.38719 8.6095H19.6128C20.6524 8.6095 21.4986 9.45496 21.4986 10.4953C21.4986 11.104 21.2048 11.6614 20.7136 12.0123L19.0001 20.1175C19.0138 21.0982 18.112 22 17.0032 22ZM2.38719 9.84622C2.0297 9.84622 1.73828 10.1376 1.73828 10.4951C1.73828 10.777 1.94198 11.0266 2.23432 11.1007C2.46225 11.1587 2.63696 11.3422 2.68522 11.5726L4.43726 19.8629C4.45102 20.4168 4.79805 20.7631 5.22473 20.7631H17.0032C17.4299 20.7631 17.7771 20.4168 17.7771 19.9901L19.559 11.4953C19.5978 11.3085 19.7209 11.1507 19.8908 11.067C20.1195 10.9559 20.2621 10.7352 20.2621 10.4953C20.2621 10.1378 19.9707 9.8464 19.613 9.8464L2.38719 9.84622Z" fill="#F2F3ED"/>
<path d="M6.81271 18.3739C6.81271 18.6132 6.61689 18.809 6.37759 18.809H6.25775C6.01844 18.809 5.82263 18.6132 5.82263 18.3739V13.2808C5.82263 13.0415 6.01844 12.8456 6.25775 12.8456H6.37759C6.61689 12.8456 6.81271 13.0415 6.81271 13.2808V18.3739Z" fill="#F2F3ED"/>
<path d="M9.99856 18.3739C9.99856 18.6132 9.80275 18.809 9.56344 18.809H9.4436C9.2043 18.809 9.0083 18.6132 9.0083 18.3739V13.2808C9.0083 13.0415 9.20411 12.8456 9.4436 12.8456H9.56344C9.80275 12.8456 9.99856 13.0415 9.99856 13.2808V18.3739Z" fill="#F2F3ED"/>
<path d="M13.1846 18.3739C13.1846 18.6132 12.9888 18.809 12.7495 18.809H12.6295C12.3901 18.809 12.1943 18.6132 12.1943 18.3739V13.2808C12.1943 13.0415 12.3901 12.8456 12.6295 12.8456H12.7495C12.9888 12.8456 13.1846 13.0415 13.1846 13.2808V18.3739Z" fill="#F2F3ED"/>
<path d="M16.3706 18.3739C16.3706 18.6132 16.1748 18.809 15.9355 18.809H15.8155C15.5762 18.809 15.3802 18.6132 15.3802 18.3739V13.2808C15.3802 13.0415 15.5762 12.8456 15.8155 12.8456H15.9353C16.1746 12.8456 16.3704 13.0415 16.3704 13.2808L16.3706 18.3739Z" fill="#F2F3ED"/>
<path d="M5.14344 6.39887C5.55636 3.52334 8.02282 1.31123 11.0123 1.31123C14.002 1.31123 16.4686 3.52352 16.8815 6.39887C16.9417 7.38068 18.2065 7.22359 18.2065 6.39887C17.7856 2.7968 14.7278 0 11.0125 0C7.29738 0 4.23944 2.7968 3.81863 6.39887C3.81845 7.42014 5.15959 7.45941 5.14344 6.39887Z" fill="#F2F3ED"/>
</g>
<defs>
<clipPath id="clip0_112_46">
<rect width="22" height="22" fill="white"/>
</clipPath>
</defs>
</svg>
