<svg width="28" height="28" viewBox="0 0 28 28" fill="none" xmlns="http://www.w3.org/2000/svg">
<path d="M25.4999 7.99997H2.49999C1.39542 7.99997 0.5 7.10459 0.5 6.00009C0.5 4.89549 1.39542 4.00011 2.49999 4C2.5 4 2.50001 4 2.50003 4H25.4999C26.6046 4 27.5 4.89547 27.5 5.99998C27.5 7.10448 26.6045 7.99997 25.4999 7.99997ZM2.49999 12H25.4999C26.6045 12 27.5 12.8955 27.5 14C27.5 15.1046 26.6045 16 25.4999 16H2.49999C1.39544 16 0.5 15.1046 0.5 14C0.5 12.8954 1.39545 12 2.49999 12ZM2.49999 20H25.4999C26.6045 20 27.5 20.8954 27.5 22C27.5 23.1045 26.6045 23.9999 25.4999 23.9999H2.49999C1.39545 23.9999 0.5 23.1045 0.5 22C0.5 20.8953 1.39544 20 2.49999 20Z" stroke="white"/>
</svg>
