<svg width="30" height="30" viewBox="0 0 30 30" fill="none" xmlns="http://www.w3.org/2000/svg">
<path d="M20.525 1.875C20.704 1.875 20.8757 1.94612 21.0023 2.0727C21.1289 2.19929 21.2 2.37098 21.2 2.55V3.225H23.225C23.7284 3.22502 24.2137 3.41254 24.5864 3.75099C24.959 4.08943 25.1922 4.55453 25.2405 5.0556L25.25 5.25V26.85C25.25 27.3534 25.0625 27.8387 24.724 28.2114C24.3856 28.584 23.9205 28.8172 23.4194 28.8656L23.225 28.875H7.025C6.52161 28.875 6.03627 28.6875 5.66363 28.349C5.291 28.0106 5.05778 27.5455 5.00945 27.0444L5 26.85V5.25C5.00002 4.74661 5.18754 4.26127 5.52599 3.88863C5.86443 3.516 6.32953 3.28278 6.8306 3.23445L7.025 3.225H9.05V2.55C9.04995 2.39202 9.10531 2.23902 9.20645 2.11765C9.30759 1.99628 9.44809 1.91424 9.6035 1.8858L9.725 1.875H20.525ZM9.05 4.575H7.025C6.86702 4.57495 6.71402 4.63031 6.59265 4.73145C6.47128 4.83259 6.38924 4.9731 6.3608 5.1285L6.35 5.25V26.85C6.34995 27.008 6.40531 27.161 6.50645 27.2824C6.60759 27.4037 6.7481 27.4858 6.9035 27.5142L7.025 27.525H23.225C23.383 27.5251 23.536 27.4697 23.6573 27.3686C23.7787 27.2674 23.8608 27.1269 23.8892 26.9715L23.9 26.85V5.25C23.9 5.09202 23.8447 4.93902 23.7435 4.81765C23.6424 4.69628 23.5019 4.61424 23.3465 4.5858L23.225 4.575H21.2V5.25C21.2001 5.40798 21.1447 5.56098 21.0435 5.68235C20.9424 5.80372 20.8019 5.88576 20.6465 5.9142L20.525 5.925H9.725C9.54598 5.925 9.37429 5.85388 9.2477 5.7273C9.12112 5.60071 9.05 5.42902 9.05 5.25V4.575ZM21.2 21.45C21.379 21.45 21.5507 21.5211 21.6773 21.6477C21.8039 21.7743 21.875 21.946 21.875 22.125C21.875 22.304 21.8039 22.4757 21.6773 22.6023C21.5507 22.7289 21.379 22.8 21.2 22.8H9.05C8.87098 22.8 8.69929 22.7289 8.5727 22.6023C8.44612 22.4757 8.375 22.304 8.375 22.125C8.375 21.946 8.44612 21.7743 8.5727 21.6477C8.69929 21.5211 8.87098 21.45 9.05 21.45H21.2ZM21.2 16.05C21.379 16.05 21.5507 16.1211 21.6773 16.2477C21.8039 16.3743 21.875 16.546 21.875 16.725C21.875 16.904 21.8039 17.0757 21.6773 17.2023C21.5507 17.3289 21.379 17.4 21.2 17.4H9.05C8.87098 17.4 8.69929 17.3289 8.5727 17.2023C8.44612 17.0757 8.375 16.904 8.375 16.725C8.375 16.546 8.44612 16.3743 8.5727 16.2477C8.69929 16.1211 8.87098 16.05 9.05 16.05H21.2ZM21.2 10.65C21.379 10.65 21.5507 10.7211 21.6773 10.8477C21.8039 10.9743 21.875 11.146 21.875 11.325C21.875 11.504 21.8039 11.6757 21.6773 11.8023C21.5507 11.9289 21.379 12 21.2 12H9.05C8.87098 12 8.69929 11.9289 8.5727 11.8023C8.44612 11.6757 8.375 11.504 8.375 11.325C8.375 11.146 8.44612 10.9743 8.5727 10.8477C8.69929 10.7211 8.87098 10.65 9.05 10.65H21.2ZM19.85 3.225H10.4V4.575H19.85V3.225Z" fill="white"/>
</svg>
