<svg width="20" height="20" viewBox="0 0 20 20" fill="none" xmlns="http://www.w3.org/2000/svg">
<path d="M10 1.00775C5.03876 1.00775 1.00775 5.03876 1.00775 10C1.00775 12.4651 2 14.6977 3.6124 16.3256C3.6124 16.3256 3.62791 16.3411 3.62791 16.3566C3.62791 16.3566 3.64341 16.3566 3.64341 16.3721C5.27132 18 7.51938 19.0078 10 19.0078C14.9612 19.0078 18.9922 14.9767 18.9922 10.0155C18.9922 5.05426 14.9612 1.00775 10 1.00775ZM2.26357 10C2.26357 5.73643 5.73643 2.27907 10 2.27907C11.907 2.27907 13.6434 2.97674 14.9922 4.10853L4.10853 14.9922C2.96124 13.6434 2.26357 11.907 2.26357 10ZM10 17.7364C8.09302 17.7364 6.34108 17.0388 4.99225 15.8915L15.876 5.00775C17.0233 6.35659 17.7209 8.10853 17.7209 10.0155C17.7364 14.2636 14.2636 17.7364 10 17.7364Z" fill="#C31717"/>
</svg>
