<svg width="50" height="50" viewBox="0 0 50 50" fill="none" xmlns="http://www.w3.org/2000/svg">
<g clip-path="url(#clip0_233_41)">
<path d="M22.6562 50H3.90619C3.7075 50.0004 3.51611 49.9251 3.37097 49.7894C3.22584 49.6537 3.13786 49.4678 3.12494 49.2695L1.56244 24.2695C1.55549 24.1627 1.57054 24.0557 1.60668 23.9549C1.64281 23.8542 1.69926 23.762 1.77251 23.684C1.84576 23.606 1.93425 23.5438 2.03251 23.5014C2.13076 23.459 2.23668 23.4373 2.34369 23.4375H24.2187C24.3257 23.4373 24.4316 23.459 24.5299 23.5014C24.6281 23.5438 24.7166 23.606 24.7899 23.684C24.8631 23.762 24.9196 23.8542 24.9557 23.9549C24.9918 24.0557 25.0069 24.1627 24.9999 24.2695L23.4374 49.2695C23.4245 49.4678 23.3366 49.6537 23.1914 49.7894C23.0463 49.9251 22.8549 50.0004 22.6562 50ZM4.64057 48.4375H21.9218L23.3867 25H3.17572L4.64057 48.4375Z" fill="white"/>
<path d="M25.7812 25H0.78125C0.57405 25 0.375336 24.9177 0.228823 24.7712C0.08231 24.6247 0 24.426 0 24.2188C0 24.0115 0.08231 23.8128 0.228823 23.6663C0.375336 23.5198 0.57405 23.4375 0.78125 23.4375H25.7812C25.9885 23.4375 26.1872 23.5198 26.3337 23.6663C26.4802 23.8128 26.5625 24.0115 26.5625 24.2188C26.5625 24.426 26.4802 24.6247 26.3337 24.7712C26.1872 24.9177 25.9885 25 25.7812 25Z" fill="white"/>
<path d="M23.4375 32.6523C22.1314 32.6822 20.838 32.3898 19.6719 31.8008C18.7064 31.3051 17.6317 31.0606 16.5469 31.0898C15.4619 31.0596 14.387 31.3042 13.4219 31.8008C12.2551 32.388 10.9622 32.6803 9.65625 32.6523C8.35033 32.6803 7.05744 32.388 5.89062 31.8008C4.9252 31.3051 3.85047 31.0606 2.76562 31.0898C2.55842 31.0898 2.35971 31.0075 2.2132 30.861C2.06668 30.7145 1.98438 30.5158 1.98438 30.3086C1.98438 30.1014 2.06668 29.9027 2.2132 29.7562C2.35971 29.6097 2.55842 29.5273 2.76562 29.5273C4.07155 29.4994 5.36444 29.7917 6.53125 30.3789C7.49562 30.8775 8.57111 31.1221 9.65625 31.0898C10.7413 31.1211 11.8165 30.8765 12.7813 30.3789C13.9481 29.7917 15.241 29.4994 16.5469 29.5273C17.8528 29.4994 19.1457 29.7917 20.3125 30.3789C21.2772 30.8765 22.3525 31.1211 23.4375 31.0898C23.6447 31.0898 23.8434 31.1722 23.9899 31.3187C24.1364 31.4652 24.2187 31.6639 24.2187 31.8711C24.2187 32.0783 24.1364 32.277 23.9899 32.4235C23.8434 32.57 23.6447 32.6523 23.4375 32.6523Z" fill="white"/>
<path d="M36.7188 28.5156H32.0312C31.824 28.5156 31.6253 28.4333 31.4788 28.2868C31.3323 28.1403 31.25 27.9416 31.25 27.7344V3.125C31.25 2.2962 31.5792 1.50134 32.1653 0.915291C32.7513 0.32924 33.5462 0 34.375 0C35.2038 0 35.9987 0.32924 36.5847 0.915291C37.1708 1.50134 37.5 2.2962 37.5 3.125V27.7344C37.5 27.9416 37.4177 28.1403 37.2712 28.2868C37.1247 28.4333 36.926 28.5156 36.7188 28.5156ZM32.8125 26.9531H35.9375V3.125C35.9375 2.7106 35.7729 2.31317 35.4799 2.02015C35.1868 1.72712 34.7894 1.5625 34.375 1.5625C33.9606 1.5625 33.5632 1.72712 33.2701 2.02015C32.9771 2.31317 32.8125 2.7106 32.8125 3.125V26.9531Z" fill="white"/>
<path d="M30.8594 36.3281C30.6522 36.3281 30.4535 36.2458 30.3069 36.0993C30.1604 35.9528 30.0781 35.7541 30.0781 35.5469V27.7344C30.0781 27.5272 30.1604 27.3285 30.3069 27.1819C30.4535 27.0354 30.6522 26.9531 30.8594 26.9531H37.8906C38.0978 26.9531 38.2965 27.0354 38.4431 27.1819C38.5896 27.3285 38.6719 27.5272 38.6719 27.7344V32.0312C38.6719 32.2385 38.5896 32.4372 38.4431 32.5837C38.2965 32.7302 38.0978 32.8125 37.8906 32.8125C37.6834 32.8125 37.4847 32.7302 37.3382 32.5837C37.1917 32.4372 37.1094 32.2385 37.1094 32.0312V28.5156H31.6406V35.5469C31.6406 35.7541 31.5583 35.9528 31.4118 36.0993C31.2653 36.2458 31.0666 36.3281 30.8594 36.3281Z" fill="white"/>
<path d="M47.8983 47.5899H47.8397C47.6093 47.5899 42.1718 47.1602 39.078 46.3867C35.8163 45.5703 32.6835 42.0899 32.5507 41.9297C32.4129 41.7743 32.3425 41.5705 32.3549 41.3632C32.3611 41.2606 32.3874 41.1601 32.4324 41.0676C32.4774 40.9752 32.5401 40.8925 32.6171 40.8242C32.694 40.756 32.7837 40.7036 32.8809 40.67C32.9781 40.6364 33.0809 40.6223 33.1836 40.6285C33.3909 40.6409 33.5848 40.7352 33.7225 40.8906C33.7538 40.9258 36.6679 44.1719 39.4608 44.8711C42.4257 45.6094 47.9061 46.043 47.9608 46.043C48.168 46.0508 48.3637 46.1405 48.5047 46.2925C48.6457 46.4445 48.7206 46.6463 48.7128 46.8535C48.705 47.0607 48.6152 47.2564 48.4632 47.3974C48.3112 47.5384 48.1094 47.6133 47.9022 47.6055L47.8983 47.5899Z" fill="white"/>
<path d="M44.6329 41.7969C44.495 41.7943 44.3602 41.7552 44.2423 41.6836C38.5274 38.168 30.4962 37.5859 30.4141 37.582C30.2089 37.568 30.0175 37.4735 29.8815 37.3192C29.7455 37.1649 29.6758 36.9632 29.6876 36.7578C29.695 36.6555 29.7225 36.5556 29.7685 36.4639C29.8146 36.3722 29.8782 36.2904 29.9558 36.2233C30.0335 36.1562 30.1236 36.105 30.221 36.0728C30.3184 36.0405 30.4212 36.0277 30.5235 36.0351C30.8673 36.0586 39.0235 36.6641 45.0587 40.3633C45.2017 40.4518 45.3123 40.5841 45.3741 40.7405C45.4359 40.8969 45.4456 41.0691 45.4017 41.2314C45.3579 41.3938 45.2628 41.5377 45.1306 41.6416C44.9984 41.7456 44.8362 41.8042 44.668 41.8086L44.6329 41.7969Z" fill="white"/>
<path d="M47.0585 44.8985C46.9306 44.8986 46.8045 44.8674 46.6914 44.8075C46.5784 44.7475 46.4818 44.6607 46.4101 44.5547C46.3671 44.4883 41.9609 38.0156 37.4687 36.3985C35.7074 35.8269 33.9036 35.3959 32.0742 35.1094C31.9716 35.094 31.873 35.0586 31.7841 35.0051C31.6952 34.9516 31.6177 34.8811 31.5561 34.7977C31.4944 34.7143 31.4498 34.6195 31.4247 34.5188C31.3997 34.4182 31.3947 34.3135 31.4101 34.211C31.4255 34.1084 31.4609 34.0098 31.5144 33.9209C31.5679 33.832 31.6384 33.7545 31.7218 33.6928C31.8052 33.6312 31.9 33.5866 32.0007 33.5615C32.1013 33.5365 32.2059 33.5315 32.3085 33.5469C34.2394 33.8485 36.1428 34.3057 38 34.9141C42.9687 36.7188 47.5156 43.3985 47.707 43.6797C47.7865 43.7973 47.8324 43.9343 47.8399 44.076C47.8474 44.2178 47.8161 44.3589 47.7494 44.4842C47.6828 44.6095 47.5832 44.7142 47.4615 44.7872C47.3398 44.8602 47.2005 44.8987 47.0585 44.8985Z" fill="white"/>
<path d="M42.4804 50C38.5741 50 34.1054 49.2422 31.2421 46.3789C29.6229 44.758 28.7134 42.5606 28.7134 40.2695C28.7134 37.9785 29.6229 35.7811 31.2421 34.1602C32.864 32.5429 35.061 31.6347 37.3515 31.6347C39.6419 31.6347 41.8389 32.5429 43.4608 34.1602C45.9296 36.6289 46.7929 39.9805 47.5585 42.9375C47.6249 43.1914 47.6874 43.4492 47.7538 43.6992L49.7069 45.2617C49.7953 45.3324 49.8672 45.4213 49.9178 45.5225C49.9684 45.6237 49.9964 45.7346 49.9999 45.8477C49.9937 46.1696 49.8941 46.4829 49.7131 46.7492C49.532 47.0155 49.2775 47.2235 48.9804 47.3477C49.1208 47.6415 49.28 47.9259 49.4569 48.1992C49.5221 48.3066 49.5605 48.4282 49.5688 48.5535C49.577 48.6789 49.5549 48.8044 49.5043 48.9195C49.4537 49.0345 49.3761 49.1356 49.2781 49.2142C49.1801 49.2928 49.0645 49.3466 48.9413 49.3711C46.8104 49.7709 44.6483 49.9814 42.4804 50ZM32.3475 35.2578C31.0208 36.5852 30.2755 38.385 30.2755 40.2617C30.2755 42.1384 31.0208 43.9383 32.3475 45.2656C36.203 49.1211 43.6327 48.6289 47.5819 48.0274C47.4374 47.7383 47.3046 47.4258 47.1913 47.0938C47.1464 46.9796 47.129 46.8564 47.1405 46.7343C47.152 46.6121 47.1922 46.4944 47.2577 46.3906C47.3235 46.2875 47.4125 46.2013 47.5177 46.1389C47.6228 46.0765 47.7412 46.0396 47.8632 46.0313C47.9578 46.0238 48.0518 46.0094 48.1444 45.9883L46.5819 44.75C46.4552 44.6503 46.3624 44.5139 46.3163 44.3594L46.0468 43.336C45.3007 40.4375 44.5272 37.4414 42.3593 35.2735C41.0319 33.9467 39.2321 33.2014 37.3554 33.2014C35.4787 33.2014 33.6788 33.9467 32.3514 35.2735L32.3475 35.2578Z" fill="white"/>
<path d="M47.0665 44.9219H46.9962C45.2596 44.7647 43.5381 44.4708 41.8477 44.043C39.7657 43.4297 38.7891 42.5352 38.6876 42.4336C38.6082 42.3639 38.5439 42.2789 38.4983 42.1837C38.4528 42.0884 38.427 41.985 38.4226 41.8795C38.4181 41.774 38.4351 41.6687 38.4725 41.57C38.5099 41.4713 38.5669 41.3811 38.64 41.305C38.7132 41.229 38.8011 41.1685 38.8983 41.1273C38.9955 41.0861 39.1 41.065 39.2056 41.0654C39.3112 41.0657 39.4156 41.0874 39.5125 41.1292C39.6094 41.171 39.6969 41.2321 39.7696 41.3086C40.5135 41.8924 41.3719 42.313 42.2891 42.543C43.8821 42.9368 45.5026 43.2097 47.1368 43.3594C47.2394 43.364 47.3401 43.3888 47.4331 43.4323C47.5261 43.4758 47.6096 43.5373 47.6789 43.6131C47.7482 43.6889 47.8019 43.7776 47.8369 43.8741C47.8719 43.9707 47.8875 44.0732 47.8829 44.1758C47.8783 44.2784 47.8535 44.3791 47.81 44.4721C47.7664 44.5651 47.705 44.6486 47.6292 44.7179C47.5534 44.7872 47.4647 44.8409 47.3681 44.8759C47.2716 44.9109 47.1691 44.9265 47.0665 44.9219Z" fill="white"/>
</g>
<defs>
<clipPath id="clip0_233_41">
<rect width="50" height="50" fill="white"/>
</clipPath>
</defs>
</svg>
