<svg width="50" height="50" viewBox="0 0 50 50" fill="none" xmlns="http://www.w3.org/2000/svg">
<path d="M12.2965 39.6679C12.2965 39.9756 12.5473 40.2276 12.8553 40.2276H29.2723V39.1089H12.8553C12.5473 39.1091 12.2965 39.3608 12.2965 39.6679Z" fill="white"/>
<path d="M26.2545 34.5629H12.8553C12.5476 34.5629 12.2965 34.8148 12.2965 35.1217C12.2965 35.4294 12.5473 35.6814 12.8553 35.6814H29.2723V35.2834H28.2088C27.474 35.2836 26.7872 35.0186 26.2545 34.5629Z" fill="white"/>
<path d="M32.195 5.36786H28.915V12.9509H32.195V5.36786Z" fill="white"/>
<path d="M8.45146 43.3573V26.8871C8.45146 26.2723 8.95576 25.7696 9.56943 25.7696H30.4566L36.3642 19.8608C36.9369 19.2901 37.6917 18.9793 38.4934 18.9793C39.2961 18.9793 40.0516 19.2913 40.6196 19.8591L44.7148 23.9533V12.5158C44.7148 12.0881 44.6339 11.653 44.4599 11.2323C44.2849 10.8126 44.0361 10.4475 43.7321 10.1448L36.2114 2.624C35.9084 2.32097 35.5437 2.07126 35.1236 1.89724C34.7026 1.72351 34.2679 1.64148 33.8401 1.64148H3.3543C2.49551 1.64148 1.63652 1.96951 0.982813 2.62419C0.326953 3.27888 0 4.13738 0 4.99509V43.0026C0 43.8614 0.326953 44.7199 0.982715 45.3744C1.63643 46.0292 2.49551 46.3561 3.3542 46.3561H29.2722V44.4749H9.56953C8.95576 44.4749 8.45146 43.9721 8.45146 43.3573ZM10.929 4.77214C10.929 4.48542 11.0375 4.19939 11.2562 3.98142C11.4747 3.76238 11.7612 3.65339 12.046 3.65339H32.6678C32.9538 3.65339 33.2405 3.76238 33.4585 3.98142C33.6765 4.19939 33.7845 4.48513 33.7845 4.77214V13.5467C33.7845 13.8334 33.6765 14.1194 33.4585 14.3374C33.2405 14.5553 32.9535 14.6654 32.6678 14.6654H12.046C11.7612 14.6654 11.4747 14.5554 11.2562 14.3374C11.0375 14.1194 10.929 13.8337 10.929 13.5467V4.77214ZM3.3543 44.4749C2.54082 44.4749 1.88125 43.8159 1.88125 43.0024C1.88125 42.1896 2.54053 41.5309 3.3543 41.5309C4.1665 41.5309 4.82627 42.1897 4.82627 43.0024C4.82598 43.8161 4.16621 44.4749 3.3543 44.4749Z" fill="white"/>
<path d="M12.2965 30.5756C12.2965 30.8833 12.5473 31.1353 12.8553 31.1353H25.4228C25.571 30.7726 25.792 30.4346 26.0808 30.1458L26.2088 30.0176H12.8553C12.5473 30.0176 12.2965 30.2687 12.2965 30.5756Z" fill="white"/>
<path d="M49.6417 31.4104L39.3568 21.1256C39.1361 20.9046 38.831 20.7676 38.4933 20.7676C38.1556 20.7676 37.8505 20.9046 37.6285 21.1256L27.3438 31.4104C27.005 31.7491 26.885 32.2719 27.0798 32.7416C27.2736 33.2116 27.7295 33.4956 28.2085 33.4956H31.0613V47.1379C31.0613 47.4496 31.181 47.7626 31.4193 48.0004C31.658 48.2394 31.9701 48.3584 32.2827 48.3584H44.7028C45.0156 48.3584 45.3285 48.2394 45.5672 48.0004C45.8052 47.7626 45.9252 47.4496 45.9252 47.1379V33.4956H48.778C49.2579 33.4956 49.7115 33.2116 49.9067 32.7416C50.1015 32.2719 49.9808 31.7491 49.6417 31.4104Z" fill="white"/>
</svg>
