<svg width="23" height="23" viewBox="0 0 23 23" fill="none" xmlns="http://www.w3.org/2000/svg">
<g clip-path="url(#clip0_10_247)">
<path d="M14.938 11.4996L22.2876 4.15001C23.2373 3.20043 23.2373 1.66179 22.2876 0.712204C21.3381 -0.237381 19.7994 -0.237381 18.8499 0.712204L11.5003 8.06263L4.15067 0.713031C3.20108 -0.236554 1.66245 -0.236554 0.71286 0.713031C-0.236725 1.66262 -0.236725 3.20125 0.71286 4.15084L8.06246 11.5004L0.71286 18.85C-0.236725 19.7996 -0.236725 21.3383 0.71286 22.2878C1.66245 23.2374 3.20108 23.2374 4.15067 22.2878L11.5003 14.9382L18.8499 22.2878C19.7995 23.2374 21.3381 23.2374 22.2876 22.2878C23.2373 21.3382 23.2373 19.7996 22.2876 18.85L14.938 11.4996Z" fill="black"/>
</g>
<defs>
<clipPath id="clip0_10_247">
<rect width="23" height="23" fill="white"/>
</clipPath>
</defs>
</svg>
