<svg width="37" height="37" viewBox="0 0 37 37" fill="none" xmlns="http://www.w3.org/2000/svg">
<path d="M18.4075 18.5H33.4387" stroke="white" stroke-width="2" stroke-linecap="round" stroke-linejoin="round"/>
<path d="M27.6691 28.9062V32.375H9.16907V4.625H27.6691V8.09375H29.9816V3.46875C29.9816 3.16209 29.8597 2.868 29.6429 2.65116C29.4261 2.43432 29.132 2.3125 28.8253 2.3125H8.01282C7.70616 2.3125 7.41206 2.43432 7.19523 2.65116C6.97839 2.868 6.85657 3.16209 6.85657 3.46875V33.5312C6.85657 33.8379 6.97839 34.132 7.19523 34.3488C7.41206 34.5657 7.70616 34.6875 8.01282 34.6875H28.8253C29.132 34.6875 29.4261 34.5657 29.6429 34.3488C29.8597 34.132 29.9816 33.8379 29.9816 33.5312V28.9062H27.6691Z" fill="white"/>
<path d="M33.4387 18.5L28.8137 23.125" stroke="white" stroke-width="2" stroke-linecap="round" stroke-linejoin="round"/>
<path d="M33.4387 18.5L28.8137 13.875" stroke="white" stroke-width="2" stroke-linecap="round" stroke-linejoin="round"/>
<path d="M28.8137 9.35406V7.04156" stroke="white" stroke-width="2" stroke-linecap="round" stroke-linejoin="round"/>
<path d="M28.8137 30.0625V27.75" stroke="white" stroke-width="2" stroke-linecap="round" stroke-linejoin="round"/>
</svg>
